<svg id="Layer_2" data-name="Layer 2" xmlns="http://www.w3.org/2000/svg" width="82" height="82" viewBox="0 0 82 82">
  <g id="invisible_box" data-name="invisible box">
    <rect id="Прямоугольник_53" data-name="Прямоугольник 53" width="82" height="82" fill="none"/>
    <rect id="Прямоугольник_54" data-name="Прямоугольник 54" width="82" height="82" fill="none"/>
  </g>
  <g id="icons_Q2" data-name="icons Q2" transform="translate(3.425 8.562)">
    <g id="Сгруппировать_5" data-name="Сгруппировать 5">
      <path id="Контур_73" data-name="Контур 73" d="M32.825,63.224H8.85V11.85H67.074a3.425,3.425,0,1,0,0-6.85H5.425A3.425,3.425,0,0,0,2,8.425V66.649a3.425,3.425,0,0,0,3.425,3.425h27.4a3.425,3.425,0,1,0,0-6.85Z" transform="translate(-2 -5)" fill="#da251d"/>
      <path id="Контур_74" data-name="Контур 74" d="M71.649,33.262A22.262,22.262,0,0,0,49.387,11a21.92,21.92,0,0,0-14.214,5.137H13.425a3.425,3.425,0,1,0,0,6.85H29.694a19.009,19.009,0,0,0-2.226,6.85H13.425a3.425,3.425,0,1,0,0,6.85H27.467a19.009,19.009,0,0,0,2.226,6.85H13.425a3.425,3.425,0,1,0,0,6.85H35.173L37.4,51.928V68.539a3.939,3.939,0,0,0,3.425,4.11,3.082,3.082,0,0,0,2.226-1.027L49.387,65.8l6.336,5.822a3.082,3.082,0,0,0,2.226,1.027,3.939,3.939,0,0,0,3.425-4.11V52.1A22.6,22.6,0,0,0,71.649,33.262ZM54.525,47.818V61.176l-5.137-4.795L44.25,61.176V47.818A15.584,15.584,0,0,1,33.975,33.262a15.412,15.412,0,0,1,30.825,0A15.584,15.584,0,0,1,54.525,47.818Z" transform="translate(3.7 -0.725)" fill="#da251d"/>
      <circle id="Эллипс_3" data-name="Эллипс 3" cx="8.5" cy="8.5" r="8.5" transform="translate(44.575 24.438)" fill="#da251d"/>
    </g>
  </g>
</svg>
