<svg id="Icons" xmlns="http://www.w3.org/2000/svg" width="82" height="83.999" viewBox="0 0 82 83.999">
  <g id="Сгруппировать_8" data-name="Сгруппировать 8">
    <path id="Контур_82" data-name="Контур 82" d="M81.4,42.421a8.883,8.883,0,0,0-8-2.316L53.6,43.684a10.157,10.157,0,0,0-2.8-6.947L36.6,22H7a4.216,4.216,0,0,0,0,8.421H33.4L45.2,42.842a1.668,1.668,0,1,1-2.4,2.316l-7-7.368a4.045,4.045,0,0,0-5.6,0,4.591,4.591,0,0,0,0,6.105l7,7.158A8.779,8.779,0,0,0,44,54a10.884,10.884,0,0,0,3.6-.632h0l27.2-5.053a1.926,1.926,0,0,1,1.6.421,2.377,2.377,0,0,1,.6,1.474,2.084,2.084,0,0,1-1.6,2.105L38.2,59.474,16.4,40.737H7a4.216,4.216,0,0,0,0,8.421h6.6L35.8,68.316l41-7.789A10.184,10.184,0,0,0,85,50.211a9.876,9.876,0,0,0-3.6-7.789Z" transform="translate(-3 15.683)" fill="#da251d"/>
    <path id="Контур_83" data-name="Контур 83" d="M42.393,40.105h0a14.105,14.105,0,0,1-8.632-2.737,4.211,4.211,0,0,0-5.895,1.263,3.789,3.789,0,0,0,.632,5.474,22.947,22.947,0,0,0,9.053,3.789v4.632a4.211,4.211,0,1,0,8.421,0V47.895a13.263,13.263,0,0,0,6.316-2.737A10.316,10.316,0,0,0,56.5,36.737h0c0-7.789-7.158-10.316-13.263-11.579s-7.368-2.737-7.368-3.789.421-1.263,1.053-1.895a7.158,7.158,0,0,1,3.789-.842,13.263,13.263,0,0,1,6.947,1.895,3.789,3.789,0,0,0,5.684-1.053,4,4,0,0,0-.842-5.895,19.158,19.158,0,0,0-6.526-2.526V6.211a4.211,4.211,0,1,0-8.421,0v4.632c-6.316,1.053-10.526,5.263-10.526,10.947s6.947,10.316,13.684,11.579,6.947,2.737,6.947,3.789S45.34,40.105,42.393,40.105Z" transform="translate(19.185 -2)" fill="#da251d"/>
  </g>
</svg>
