<svg id="Layer_2" data-name="Layer 2" xmlns="http://www.w3.org/2000/svg" width="82" height="82" viewBox="0 0 82 82">
  <g id="invisible_box" data-name="invisible box">
    <rect id="Прямоугольник_56" data-name="Прямоугольник 56" width="82" height="82" fill="none"/>
  </g>
  <g id="Medical" transform="translate(2.021 1.986)">
    <g id="Сгруппировать_7" data-name="Сгруппировать 7" transform="translate(0 0)">
      <path id="Контур_77" data-name="Контур 77" d="M21.456,32.423l19.48-18.971,19.48,18.971V45.8h8.658V40.936l3.68,3.648A4.273,4.273,0,0,0,75.568,45.8a3.744,3.744,0,0,0,3.247-1.7,5.3,5.3,0,0,0-.433-6.81l-9.307-9.242V6.885H60.417V19.533L43.75,3.237a3.79,3.79,0,0,0-5.628,0L3.491,37.288a5.3,5.3,0,0,0-.433,6.81,4,4,0,0,0,6.061.486l3.68-3.648V79.852H34.443V70.123H21.456Z" transform="translate(-2.021 -1.986)" fill="#da251d"/>
      <path id="Контур_78" data-name="Контур 78" d="M21,28.449V43.278a4.238,4.238,0,0,0,1.292,3.192,4.489,4.489,0,0,0,3.281,1.257H49.967a4.488,4.488,0,0,0,3.281-1.257,4.238,4.238,0,0,0,1.292-3.192V28.449a4.238,4.238,0,0,0-1.292-3.192A4.488,4.488,0,0,0,49.967,24H25.574a4.488,4.488,0,0,0-3.281,1.257A4.238,4.238,0,0,0,21,28.449Zm6.1,1.483H48.442V41.8H27.1Z" transform="translate(20.289 24.138)" fill="#da251d"/>
      <path id="Контур_79" data-name="Контур 79" d="M44,42H20a2,2,0,0,0,0,4H44a2,2,0,0,0,0-4Z" transform="translate(26.06 31.866)" fill="#da251d"/>
    </g>
  </g>
</svg>
