<svg id="Layer_2" data-name="Layer 2" xmlns="http://www.w3.org/2000/svg" width="82" height="82" viewBox="0 0 82 82">
  <g id="invisible_box" data-name="invisible box">
    <rect id="Прямоугольник_57" data-name="Прямоугольник 57" width="82" height="82" fill="none"/>
  </g>
  <g id="icons_Q2" data-name="icons Q2" transform="translate(3.481 10.443)">
    <path id="Контур_80" data-name="Контур 80" d="M30.535,37.145c-6.092-1.218-6.092-2.263-6.092-3.133a1.74,1.74,0,0,1,.87-1.566,5.222,5.222,0,0,1,3.133-.7,10.269,10.269,0,0,1,5.57,1.566,3.133,3.133,0,0,0,4.7-.87,3.307,3.307,0,0,0-.7-4.873,15.839,15.839,0,0,0-5.4-2.089v-4a3.481,3.481,0,1,0-6.962,0V25.31c-5.047.87-8.528,4.351-8.528,9.051s5.57,8.528,11.139,9.573,5.744,2.263,5.744,3.133S32.276,49.5,29.665,49.5h0A11.487,11.487,0,0,1,22.7,47.24a3.655,3.655,0,0,0-5.047,1.044,3.307,3.307,0,0,0,.7,4.525,19.494,19.494,0,0,0,7.31,3.133v3.829a3.481,3.481,0,0,0,6.962,0V55.943a10.269,10.269,0,0,0,5.221-2.263,8.528,8.528,0,0,0,3.481-6.962h0C41.326,40.278,35.583,38.19,30.535,37.145Z" transform="translate(8.146 0.886)" fill="#da251d"/>
    <path id="Контур_81" data-name="Контур 81" d="M73.192,6H5.39A3.38,3.38,0,0,0,2,9.37V63.288a3.38,3.38,0,0,0,3.39,3.37H18.95a3.4,3.4,0,0,0,2.6-1.158,3.356,3.356,0,0,0,.794-2.717,3.555,3.555,0,0,0-3.56-2.864h-10V12.74H69.8V59.918H59.631a3.4,3.4,0,0,0-2.6,1.158,3.356,3.356,0,0,0-.794,2.717,3.555,3.555,0,0,0,3.56,2.864H73.192a3.38,3.38,0,0,0,3.39-3.37V9.37A3.38,3.38,0,0,0,73.192,6Z" transform="translate(-2 -6)" fill="#da251d"/>
    <circle id="Эллипс_4" data-name="Эллипс 4" cx="3.5" cy="3.5" r="3.5" transform="translate(10.519 10.2)" fill="#da251d"/>
    <circle id="Эллипс_5" data-name="Эллипс 5" cx="3.5" cy="3.5" r="3.5" transform="translate(20.901 10.2)" fill="#da251d"/>
    <circle id="Эллипс_6" data-name="Эллипс 6" cx="3.5" cy="3.5" r="3.5" transform="translate(30.613 10.2)" fill="#da251d"/>
  </g>
</svg>
